<svg width="24" height="29" viewBox="0 0 24 29" fill="none" xmlns="http://www.w3.org/2000/svg">
<path d="M21.1875 4.2021H16.375V3.3294C16.375 1.88578 15.1974 0.711288 13.75 0.711288H10.25C8.80259 0.711288 7.625 1.88578 7.625 3.3294V4.2021H2.8125C1.60631 4.2021 0.625 5.18084 0.625 6.38386V9.43832C0.625 9.92027 1.01678 10.311 1.5 10.311H1.97819L2.73413 26.1442C2.80091 27.5425 3.95262 28.6378 5.35612 28.6378H18.6439C20.0474 28.6378 21.1992 27.5425 21.2659 26.1442L22.0218 10.311H22.5C22.9832 10.311 23.375 9.92027 23.375 9.43832V6.38386C23.375 5.18084 22.3937 4.2021 21.1875 4.2021ZM9.375 3.3294C9.375 2.84821 9.76755 2.4567 10.25 2.4567H13.75C14.2325 2.4567 14.625 2.84821 14.625 3.3294V4.2021H9.375V3.3294ZM2.375 6.38386C2.375 6.14327 2.57127 5.94751 2.8125 5.94751H21.1875C21.4287 5.94751 21.625 6.14327 21.625 6.38386V8.56562C21.3553 8.56562 3.49243 8.56562 2.375 8.56562V6.38386ZM19.5178 26.0612C19.4956 26.5273 19.1117 26.8924 18.6439 26.8924H5.35612C4.88827 26.8924 4.50437 26.5273 4.48216 26.0612L3.73016 10.311H20.2698L19.5178 26.0612Z" fill="#6C6C6C"/>
</svg>
