<svg width="22" height="29" viewBox="0 0 22 29" fill="none" xmlns="http://www.w3.org/2000/svg">
<path d="M21.4237 7.58221L14.8614 1.01988C14.7082 0.866643 14.4991 0.779526 14.2812 0.779526H2.79688C1.43991 0.779526 0.335938 1.8835 0.335938 3.24046V26.3186C0.335938 27.6755 1.43991 28.7795 2.79688 28.7795H19.2031C20.5601 28.7795 21.6641 27.6755 21.6641 26.3186V8.16234C21.6641 7.93867 21.5702 7.72861 21.4237 7.58221ZM15.1016 3.58024L18.8633 7.34203H15.9219C15.4696 7.34203 15.1016 6.97403 15.1016 6.52171V3.58024ZM19.2031 27.1389H2.79688C2.34455 27.1389 1.97656 26.7709 1.97656 26.3186V3.24046C1.97656 2.78814 2.34455 2.42015 2.79688 2.42015H13.4609V6.52171C13.4609 7.87867 14.5649 8.98265 15.9219 8.98265H20.0234V26.3186C20.0234 26.7709 19.6554 27.1389 19.2031 27.1389Z" fill="#6C6C6C"/>
</svg>
