<svg width="64" height="64" viewBox="0 0 64 64" fill="none" xmlns="http://www.w3.org/2000/svg">
<g clip-path="url(#clip0)">
<path d="M55.2034 15.336C55.1997 15.0426 55.1066 14.7533 54.905 14.5236L42.5648 0.42806C42.5624 0.424691 42.5586 0.422831 42.555 0.41981C42.4815 0.33708 42.397 0.270036 42.3063 0.210312C42.2793 0.192883 42.2522 0.176616 42.2241 0.161278C42.1444 0.118054 42.0623 0.0835438 41.9765 0.0577486C41.9533 0.0510093 41.9325 0.0409004 41.9091 0.0359041C41.8149 0.0132462 41.7193 0 41.6212 0H11.2941C9.91046 0 8.7843 1.12569 8.7843 2.50992V61.4902C8.7843 62.8737 9.91046 64.0001 11.2941 64.0001H52.7058C54.0906 64.0001 55.2157 62.8738 55.2157 61.4902V15.4767C55.2156 15.4296 55.2083 15.3833 55.2034 15.336ZM22.3211 58.6678L21.2215 53.0784C20.9718 51.7666 20.7598 50.5527 20.6053 49.0674H20.5671C20.3358 50.5329 20.1235 51.7665 19.8149 53.0784L18.582 58.6678H15.3624L12.2779 45.6752H15.4204L16.4029 51.0343C16.6921 52.576 16.9621 54.2536 17.1741 55.5649H17.2136C17.4257 54.1581 17.7332 52.5961 18.062 50.9963L19.16 45.6759H22.2841L23.3243 51.1519C23.6135 52.6745 23.8258 54.0625 24.0176 55.5079H24.0571C24.2499 54.0619 24.539 52.5392 24.8083 50.9963L25.8693 45.6765H28.8574L25.5029 58.6691H22.3212V58.6678H22.3211ZM37.0894 58.6678L36.087 55.3333H32.3657L31.4402 58.6678H28.3945L32.3651 45.6752H36.2206L40.25 58.6678H37.0894ZM47.3468 58.6678H43.9154L39.7513 45.6752H42.9718L44.5515 51.1691C44.9951 52.7108 45.3996 54.1961 45.7083 55.8155H45.766C46.0943 54.2536 46.4988 52.7107 46.9424 51.2266L48.6011 45.6752H51.7243L47.3468 58.6678ZM11.2941 42.614V2.50992H40.3663V15.3506C40.3663 16.0433 40.9276 16.6055 41.6212 16.6055H52.7058L52.7071 42.6141H11.2941V42.614Z" fill="#6C6C6C"/>
<path d="M34.1986 47.8737H34.1593C33.9663 48.6447 33.7745 49.6274 33.5625 50.3788L32.7904 53.136H35.663L34.8541 50.3788C34.6227 49.6078 34.391 48.6446 34.1986 47.8737Z" fill="#6C6C6C"/>
<path d="M26.4092 24.928C26.4092 24.2227 25.8384 23.6505 25.1325 23.6505H22.9181C22.2122 23.6505 21.6415 24.2227 21.6415 24.928V30.3787C21.6415 31.0846 22.2123 31.6563 22.9181 31.6563H25.1325C25.8384 31.6563 26.4092 31.084 26.4092 30.3787V31.7384L38.952 37.1753V18.0453L26.4092 23.569V24.928Z" fill="#6C6C6C"/>
</g>
<defs>
<clipPath id="clip0">
<rect width="64" height="64" fill="white"/>
</clipPath>
</defs>
</svg>
