<svg id="Слой_1" data-name="Слой 1" xmlns="http://www.w3.org/2000/svg" viewBox="0 0 512 512"><defs><style>.cls-1{fill:#3a3a3a;}</style></defs><title>right-arrow (1)</title><path class="cls-1" d="M292.63,236,64.78,8.18a28.07,28.07,0,0,0-39.61,0L8.39,25a28.05,28.05,0,0,0,0,39.62L199.72,255.89,8.18,447.43a28.08,28.08,0,0,0,0,39.62L25,503.82a28.07,28.07,0,0,0,39.61,0l228.06-228a28.26,28.26,0,0,0,0-39.75Z"/><path class="cls-1" d="M503.83,236,276,8.18a28.07,28.07,0,0,0-39.61,0L219.6,25a28.05,28.05,0,0,0,0,39.62L410.92,255.89,219.38,447.43a28.08,28.08,0,0,0,0,39.62l16.78,16.77a28.07,28.07,0,0,0,39.61,0l228.06-228a28.26,28.26,0,0,0,0-39.75Z"/></svg>